<?xml version="1.0" encoding="UTF-8" standalone="no"?>
<!DOCTYPE svg PUBLIC "-//W3C//DTD SVG 1.1//EN" "http://www.w3.org/Graphics/SVG/1.1/DTD/svg11.dtd">
<svg width="5cm" height="4cm" viewBox="19 15 92 61" xmlns="http://www.w3.org/2000/svg" xmlns:xlink="http://www.w3.org/1999/xlink">
  <g id="Background"/>
  <g id="Background">
    <rect style="fill: none; stroke-opacity: 1; stroke-width: 1; stroke: #000000" x="62" y="20" width="12" height="12" rx="0" ry="0"/>
    <rect style="fill: none; stroke-opacity: 1; stroke-width: 1; stroke: #000000" x="74" y="20" width="12" height="12" rx="0" ry="0"/>
    <rect style="fill: none; stroke-opacity: 1; stroke-width: 1; stroke: #000000" x="86" y="20" width="12" height="12" rx="0" ry="0"/>
    <rect style="fill: none; stroke-opacity: 1; stroke-width: 1; stroke: #000000" x="62" y="40" width="12" height="12" rx="0" ry="0"/>
    <rect style="fill: none; stroke-opacity: 1; stroke-width: 1; stroke: #000000" x="86" y="40" width="12" height="12" rx="0" ry="0"/>
    <rect style="fill: none; stroke-opacity: 1; stroke-width: 1; stroke: #000000" x="50" y="40" width="12" height="12" rx="0" ry="0"/>
    <rect style="fill: none; stroke-opacity: 1; stroke-width: 1; stroke: #000000" x="74" y="40" width="12" height="12" rx="0" ry="0"/>
    <rect style="fill: none; stroke-opacity: 1; stroke-width: 1; stroke: #000000" x="86" y="60" width="12" height="12" rx="0" ry="0"/>
    <rect style="fill: none; stroke-opacity: 1; stroke-width: 1; stroke: #000000" x="50" y="60" width="12" height="12" rx="0" ry="0"/>
    <rect style="fill: none; stroke-opacity: 1; stroke-width: 1; stroke: #000000" x="62" y="60" width="12" height="12" rx="0" ry="0"/>
    <rect style="fill: none; stroke-opacity: 1; stroke-width: 1; stroke: #000000" x="74" y="60" width="12" height="12" rx="0" ry="0"/>
    <rect style="fill: none; stroke-opacity: 1; stroke-width: 1; stroke: #000000" x="98" y="60" width="12" height="12" rx="0" ry="0"/>
    <text font-size="7.90222" style="fill: #000000; fill-opacity: 1; stroke: none;text-anchor:middle;font-family:sans-serif;font-style:normal;font-weight:normal" x="56" y="49.05">
      <tspan x="56" y="49.05">'r'</tspan>
    </text>
    <text font-size="7.90222" style="fill: #000000; fill-opacity: 1; stroke: none;text-anchor:middle;font-family:sans-serif;font-style:normal;font-weight:normal" x="92" y="49.05">
      <tspan x="92" y="49.05">0</tspan>
    </text>
    <text font-size="7.90222" style="fill: #000000; fill-opacity: 1; stroke: none;text-anchor:middle;font-family:sans-serif;font-style:normal;font-weight:normal" x="80" y="49.05">
      <tspan x="80" y="49.05">'i'</tspan>
    </text>
    <text font-size="7.90222" style="fill: #000000; fill-opacity: 1; stroke: none;text-anchor:middle;font-family:sans-serif;font-style:normal;font-weight:normal" x="68" y="49.05">
      <tspan x="68" y="49.05">'u'</tspan>
    </text>
    <text font-size="7.90222" style="fill: #000000; fill-opacity: 1; stroke: none;text-anchor:middle;font-family:sans-serif;font-style:normal;font-weight:normal" x="56" y="69.05">
      <tspan x="56" y="69.05">'l'</tspan>
    </text>
    <text font-size="7.90222" style="fill: #000000; fill-opacity: 1; stroke: none;text-anchor:middle;font-family:sans-serif;font-style:normal;font-weight:normal" x="92" y="69.05">
      <tspan x="92" y="69.05">'s'</tspan>
    </text>
    <text font-size="7.90222" style="fill: #000000; fill-opacity: 1; stroke: none;text-anchor:middle;font-family:sans-serif;font-style:normal;font-weight:normal" x="80" y="69.05">
      <tspan x="80" y="69.05">'i'</tspan>
    </text>
    <text font-size="7.90222" style="fill: #000000; fill-opacity: 1; stroke: none;text-anchor:middle;font-family:sans-serif;font-style:normal;font-weight:normal" x="68" y="69.05">
      <tspan x="68" y="69.05">'u'</tspan>
    </text>
    <text font-size="7.90222" style="fill: #000000; fill-opacity: 1; stroke: none;text-anchor:middle;font-family:sans-serif;font-style:normal;font-weight:normal" x="104" y="69.05">
      <tspan x="104" y="69.05">0</tspan>
    </text>
    <text font-size="7.90222" style="fill: #000000; fill-opacity: 1; stroke: none;text-anchor:middle;font-family:sans-serif;font-style:normal;font-weight:normal" x="56" y="29.05">
      <tspan x="56" y="29.05">'a'</tspan>
    </text>
    <text font-size="7.90222" style="fill: #000000; fill-opacity: 1; stroke: none;text-anchor:middle;font-family:sans-serif;font-style:normal;font-weight:normal" x="80" y="28.915">
      <tspan x="80" y="28.915">'a'</tspan>
    </text>
    <text font-size="7.90222" style="fill: #000000; fill-opacity: 1; stroke: none;text-anchor:middle;font-family:sans-serif;font-style:normal;font-weight:normal" x="68" y="28.915">
      <tspan x="68" y="28.915">'n'</tspan>
    </text>
    <text font-size="7.90222" style="fill: #000000; fill-opacity: 1; stroke: none;text-anchor:middle;font-family:sans-serif;font-style:normal;font-weight:normal" x="92" y="29.05">
      <tspan x="92" y="29.05">0</tspan>
    </text>
    <rect style="fill: none; stroke-opacity: 1; stroke-width: 1; stroke: #000000" x="50" y="20" width="12" height="12" rx="0" ry="0"/>
    <g>
      <path style="fill: none; stroke-opacity: 1; stroke-width: 0.6; stroke: #000000" d="M 32 26 C 44,26 35.5078,26 47.337,26"/>
      <path style="fill: #000000; fill-opacity: 1; stroke-opacity: 1; stroke-width: 0.6; stroke: #000000" fill-rule="evenodd" d="M 32 26 C 32,25.5 32.5,25 33,25 C 33.5,25 34,25.5 34,26 C 34,26.5 33.5,27 33,27 C 32.5,27 32,26.5 32,26z"/>
      <polygon style="fill: #000000; fill-opacity: 1; stroke-opacity: 1; stroke-width: 0.6; stroke: #000000" fill-rule="evenodd" points="48.837,26 46.837,27 47.337,26 46.837,25 "/>
    </g>
    <rect style="fill: none; stroke-opacity: 1; stroke-width: 1; stroke: #000000" x="20" y="36" width="20" height="20" rx="0" ry="0"/>
    <rect style="fill: none; stroke-opacity: 1; stroke-width: 1; stroke: #000000" x="20" y="16" width="20" height="20" rx="0" ry="0"/>
    <rect style="fill: none; stroke-opacity: 1; stroke-width: 1; stroke: #000000" x="20" y="56" width="20" height="20" rx="0" ry="0"/>
    <g>
      <path style="fill: none; stroke-opacity: 1; stroke-width: 0.6; stroke: #000000" d="M 32 46 C 44,46 35.5078,46 47.337,46"/>
      <path style="fill: #000000; fill-opacity: 1; stroke-opacity: 1; stroke-width: 0.6; stroke: #000000" fill-rule="evenodd" d="M 32 46 C 32,45.5 32.5,45 33,45 C 33.5,45 34,45.5 34,46 C 34,46.5 33.5,47 33,47 C 32.5,47 32,46.5 32,46z"/>
      <polygon style="fill: #000000; fill-opacity: 1; stroke-opacity: 1; stroke-width: 0.6; stroke: #000000" fill-rule="evenodd" points="48.837,46 46.837,47 47.337,46 46.837,45 "/>
    </g>
    <g>
      <path style="fill: none; stroke-opacity: 1; stroke-width: 0.6; stroke: #000000" d="M 32 66 C 44,66 35.5078,66 47.337,66"/>
      <path style="fill: #000000; fill-opacity: 1; stroke-opacity: 1; stroke-width: 0.6; stroke: #000000" fill-rule="evenodd" d="M 32 66 C 32,65.5 32.5,65 33,65 C 33.5,65 34,65.5 34,66 C 34,66.5 33.5,67 33,67 C 32.5,67 32,66.5 32,66z"/>
      <polygon style="fill: #000000; fill-opacity: 1; stroke-opacity: 1; stroke-width: 0.6; stroke: #000000" fill-rule="evenodd" points="48.837,66 46.837,67 47.337,66 46.837,65 "/>
    </g>
  </g>
</svg>
