<?xml version="1.0" encoding="UTF-8" standalone="no"?>
<!DOCTYPE svg PUBLIC "-//W3C//DTD SVG 1.1//EN" "http://www.w3.org/Graphics/SVG/1.1/DTD/svg11.dtd">
<svg width="18cm" height="1cm" viewBox="-1 -1 350 14" xmlns="http://www.w3.org/2000/svg" xmlns:xlink="http://www.w3.org/1999/xlink">
  <g id="Background"/>
  <g id="Background">
    <text font-size="5.64444" style="fill: #000000; fill-opacity: 1; stroke: none;text-anchor:middle;font-family:sans-serif;font-style:normal;font-weight:normal" x="6" y="8.175">
      <tspan x="6" y="8.175">62</tspan>
    </text>
    <text font-size="5.64444" style="fill: #000000; fill-opacity: 1; stroke: none;text-anchor:middle;font-family:sans-serif;font-style:normal;font-weight:normal" x="18" y="8.175">
      <tspan x="18" y="8.175">6f</tspan>
    </text>
    <text font-size="5.64444" style="fill: #000000; fill-opacity: 1; stroke: none;text-anchor:middle;font-family:sans-serif;font-style:normal;font-weight:normal" x="30" y="8.175">
      <tspan x="30" y="8.175">6d</tspan>
    </text>
    <text font-size="5.64444" style="fill: #000000; fill-opacity: 1; stroke: none;text-anchor:middle;font-family:sans-serif;font-style:normal;font-weight:normal" x="42" y="8.175">
      <tspan x="42" y="8.175">20</tspan>
    </text>
    <text font-size="5.64444" style="fill: #000000; fill-opacity: 1; stroke: none;text-anchor:middle;font-family:sans-serif;font-style:normal;font-weight:normal" x="54" y="8.175">
      <tspan x="54" y="8.175">64</tspan>
    </text>
    <text font-size="5.64444" style="fill: #000000; fill-opacity: 1; stroke: none;text-anchor:middle;font-family:sans-serif;font-style:normal;font-weight:normal" x="66" y="8.175">
      <tspan x="66" y="8.175">69</tspan>
    </text>
    <text font-size="5.64444" style="fill: #000000; fill-opacity: 1; stroke: none;text-anchor:middle;font-family:sans-serif;font-style:normal;font-weight:normal" x="78" y="8.175">
      <tspan x="78" y="8.175">61</tspan>
    </text>
    <text font-size="5.64444" style="fill: #000000; fill-opacity: 1; stroke: none;text-anchor:middle;font-family:sans-serif;font-style:normal;font-weight:normal" x="90" y="8.175">
      <tspan x="90" y="8.175">0a</tspan>
    </text>
    <text font-size="5.64444" style="fill: #000000; fill-opacity: 1; stroke: none;text-anchor:middle;font-family:sans-serif;font-style:normal;font-weight:normal" x="102" y="8.175">
      <tspan x="102" y="8.175">61</tspan>
    </text>
    <text font-size="5.64444" style="fill: #000000; fill-opacity: 1; stroke: none;text-anchor:middle;font-family:sans-serif;font-style:normal;font-weight:normal" x="114" y="8.175">
      <tspan x="114" y="8.175">62</tspan>
    </text>
    <text font-size="5.64444" style="fill: #000000; fill-opacity: 1; stroke: none;text-anchor:middle;font-family:sans-serif;font-style:normal;font-weight:normal" x="126" y="8.175">
      <tspan x="126" y="8.175">63</tspan>
    </text>
    <text font-size="5.64444" style="fill: #000000; fill-opacity: 1; stroke: none;text-anchor:middle;font-family:sans-serif;font-style:normal;font-weight:normal" x="138" y="8.175">
      <tspan x="138" y="8.175">64</tspan>
    </text>
    <text font-size="5.64444" style="fill: #000000; fill-opacity: 1; stroke: none;text-anchor:middle;font-family:sans-serif;font-style:normal;font-weight:normal" x="150" y="8.175">
      <tspan x="150" y="8.175">20</tspan>
    </text>
    <text font-size="5.64444" style="fill: #000000; fill-opacity: 1; stroke: none;text-anchor:middle;font-family:sans-serif;font-style:normal;font-weight:normal" x="162" y="8.175">
      <tspan x="162" y="8.175">31</tspan>
    </text>
    <text font-size="5.64444" style="fill: #000000; fill-opacity: 1; stroke: none;text-anchor:middle;font-family:sans-serif;font-style:normal;font-weight:normal" x="174" y="8.175">
      <tspan x="174" y="8.175">32</tspan>
    </text>
    <text font-size="5.64444" style="fill: #000000; fill-opacity: 1; stroke: none;text-anchor:middle;font-family:sans-serif;font-style:normal;font-weight:normal" x="186" y="8.175">
      <tspan x="186" y="8.175">33</tspan>
    </text>
    <text font-size="5.64444" style="fill: #000000; fill-opacity: 1; stroke: none;text-anchor:middle;font-family:sans-serif;font-style:normal;font-weight:normal" x="198" y="8.175">
      <tspan x="198" y="8.175">34</tspan>
    </text>
    <text font-size="5.64444" style="fill: #000000; fill-opacity: 1; stroke: none;text-anchor:middle;font-family:sans-serif;font-style:normal;font-weight:normal" x="210" y="8.175">
      <tspan x="210" y="8.175">0a</tspan>
    </text>
    <text font-size="5.64444" style="fill: #000000; fill-opacity: 1; stroke: none;text-anchor:middle;font-family:sans-serif;font-style:normal;font-weight:normal" x="222" y="8.175">
      <tspan x="222" y="8.175">50</tspan>
    </text>
    <text font-size="5.64444" style="fill: #000000; fill-opacity: 1; stroke: none;text-anchor:middle;font-family:sans-serif;font-style:normal;font-weight:normal" x="234" y="8.175">
      <tspan x="234" y="8.175">53</tspan>
    </text>
    <text font-size="5.64444" style="fill: #000000; fill-opacity: 1; stroke: none;text-anchor:middle;font-family:sans-serif;font-style:normal;font-weight:normal" x="246" y="8.175">
      <tspan x="246" y="8.175">43</tspan>
    </text>
    <text font-size="5.64444" style="fill: #000000; fill-opacity: 1; stroke: none;text-anchor:middle;font-family:sans-serif;font-style:normal;font-weight:normal" x="258" y="8.175">
      <tspan x="258" y="8.175">2d</tspan>
    </text>
    <text font-size="5.64444" style="fill: #000000; fill-opacity: 1; stroke: none;text-anchor:middle;font-family:sans-serif;font-style:normal;font-weight:normal" x="270" y="8.175">
      <tspan x="270" y="8.175">31</tspan>
    </text>
    <text font-size="5.64444" style="fill: #000000; fill-opacity: 1; stroke: none;text-anchor:middle;font-family:sans-serif;font-style:normal;font-weight:normal" x="282" y="8.175">
      <tspan x="282" y="8.175">39</tspan>
    </text>
    <text font-size="5.64444" style="fill: #000000; fill-opacity: 1; stroke: none;text-anchor:middle;font-family:sans-serif;font-style:normal;font-weight:normal" x="294" y="8.175">
      <tspan x="294" y="8.175">2f</tspan>
    </text>
    <text font-size="5.64444" style="fill: #000000; fill-opacity: 1; stroke: none;text-anchor:middle;font-family:sans-serif;font-style:normal;font-weight:normal" x="306" y="8.175">
      <tspan x="306" y="8.175">32</tspan>
    </text>
    <text font-size="5.64444" style="fill: #000000; fill-opacity: 1; stroke: none;text-anchor:middle;font-family:sans-serif;font-style:normal;font-weight:normal" x="318" y="8.175">
      <tspan x="318" y="8.175">30</tspan>
    </text>
    <text font-size="5.64444" style="fill: #000000; fill-opacity: 1; stroke: none;text-anchor:middle;font-family:sans-serif;font-style:normal;font-weight:normal" x="330" y="8.175">
      <tspan x="330" y="8.175">76</tspan>
    </text>
    <text font-size="5.64444" style="fill: #000000; fill-opacity: 1; stroke: none;text-anchor:middle;font-family:sans-serif;font-style:normal;font-weight:normal" x="342" y="8.175">
      <tspan x="342" y="8.175">0a</tspan>
    </text>
    <rect style="fill: none; stroke-opacity: 1; stroke-width: 1; stroke: #000000" x="1.77636e-14" y="0" width="12" height="12" rx="0" ry="0"/>
    <rect style="fill: none; stroke-opacity: 1; stroke-width: 1; stroke: #000000" x="12" y="0" width="12" height="12" rx="0" ry="0"/>
    <rect style="fill: none; stroke-opacity: 1; stroke-width: 1; stroke: #000000" x="24" y="0" width="12" height="12" rx="0" ry="0"/>
    <rect style="fill: none; stroke-opacity: 1; stroke-width: 1; stroke: #000000" x="36" y="0" width="12" height="12" rx="0" ry="0"/>
    <rect style="fill: none; stroke-opacity: 1; stroke-width: 1; stroke: #000000" x="48" y="0" width="12" height="12" rx="0" ry="0"/>
    <rect style="fill: none; stroke-opacity: 1; stroke-width: 1; stroke: #000000" x="60" y="0" width="12" height="12" rx="0" ry="0"/>
    <rect style="fill: none; stroke-opacity: 1; stroke-width: 1; stroke: #000000" x="72" y="0" width="12" height="12" rx="0" ry="0"/>
    <rect style="fill: none; stroke-opacity: 1; stroke-width: 1; stroke: #000000" x="84" y="0" width="12" height="12" rx="0" ry="0"/>
    <rect style="fill: none; stroke-opacity: 1; stroke-width: 1; stroke: #000000" x="96" y="0" width="12" height="12" rx="0" ry="0"/>
    <rect style="fill: none; stroke-opacity: 1; stroke-width: 1; stroke: #000000" x="108" y="0" width="12" height="12" rx="0" ry="0"/>
    <rect style="fill: none; stroke-opacity: 1; stroke-width: 1; stroke: #000000" x="120" y="0" width="12" height="12" rx="0" ry="0"/>
    <rect style="fill: none; stroke-opacity: 1; stroke-width: 1; stroke: #000000" x="132" y="0" width="12" height="12" rx="0" ry="0"/>
    <rect style="fill: none; stroke-opacity: 1; stroke-width: 1; stroke: #000000" x="144" y="0" width="12" height="12" rx="0" ry="0"/>
    <rect style="fill: none; stroke-opacity: 1; stroke-width: 1; stroke: #000000" x="156" y="0" width="12" height="12" rx="0" ry="0"/>
    <rect style="fill: none; stroke-opacity: 1; stroke-width: 1; stroke: #000000" x="168" y="0" width="12" height="12" rx="0" ry="0"/>
    <rect style="fill: none; stroke-opacity: 1; stroke-width: 1; stroke: #000000" x="180" y="0" width="12" height="12" rx="0" ry="0"/>
    <rect style="fill: none; stroke-opacity: 1; stroke-width: 1; stroke: #000000" x="192" y="0" width="12" height="12" rx="0" ry="0"/>
    <rect style="fill: none; stroke-opacity: 1; stroke-width: 1; stroke: #000000" x="204" y="0" width="12" height="12" rx="0" ry="0"/>
    <rect style="fill: none; stroke-opacity: 1; stroke-width: 1; stroke: #000000" x="216" y="0" width="12" height="12" rx="0" ry="0"/>
    <rect style="fill: none; stroke-opacity: 1; stroke-width: 1; stroke: #000000" x="228" y="0" width="12" height="12" rx="0" ry="0"/>
    <rect style="fill: none; stroke-opacity: 1; stroke-width: 1; stroke: #000000" x="240" y="0" width="12" height="12" rx="0" ry="0"/>
    <rect style="fill: none; stroke-opacity: 1; stroke-width: 1; stroke: #000000" x="252" y="0" width="12" height="12" rx="0" ry="0"/>
    <rect style="fill: none; stroke-opacity: 1; stroke-width: 1; stroke: #000000" x="264" y="0" width="12" height="12" rx="0" ry="0"/>
    <rect style="fill: none; stroke-opacity: 1; stroke-width: 1; stroke: #000000" x="276" y="0" width="12" height="12" rx="0" ry="0"/>
    <rect style="fill: none; stroke-opacity: 1; stroke-width: 1; stroke: #000000" x="288" y="0" width="12" height="12" rx="0" ry="0"/>
    <rect style="fill: none; stroke-opacity: 1; stroke-width: 1; stroke: #000000" x="324" y="0" width="12" height="12" rx="0" ry="0"/>
    <rect style="fill: none; stroke-opacity: 1; stroke-width: 1; stroke: #000000" x="312" y="0" width="12" height="12" rx="0" ry="0"/>
    <rect style="fill: none; stroke-opacity: 1; stroke-width: 1; stroke: #000000" x="336" y="0" width="12" height="12" rx="0" ry="0"/>
    <rect style="fill: none; stroke-opacity: 1; stroke-width: 1; stroke: #000000" x="300" y="0" width="12" height="12" rx="0" ry="0"/>
  </g>
</svg>
