<?xml version="1.0" encoding="UTF-8" standalone="no"?>
<!DOCTYPE svg PUBLIC "-//W3C//DTD SVG 1.1//EN" "http://www.w3.org/Graphics/SVG/1.1/DTD/svg11.dtd">
<svg width="20cm" height="15cm" viewBox="31 3 384 300" xmlns="http://www.w3.org/2000/svg" xmlns:xlink="http://www.w3.org/1999/xlink">
  <defs/>
  <g id="Background"/>
  <g id="Background">
    <rect style="fill: #b0b0b0; fill-opacity: 1; stroke-opacity: 1; stroke-width: 1; stroke: #000000" x="100" y="36" width="60" height="24" rx="0" ry="0"/>
    <rect style="fill: #b0b0b0; fill-opacity: 1; stroke-opacity: 1; stroke-width: 1; stroke: #000000" x="100" y="244" width="60" height="16" rx="0" ry="0"/>
    <text font-size="5.64444" style="fill: #000000; fill-opacity: 1; stroke: none;text-anchor:start;font-family:sans-serif;font-style:normal;font-weight:normal" x="152" y="208">
      <tspan x="152" y="208"></tspan>
    </text>
    <rect style="fill: #b0b0b0; fill-opacity: 1; stroke-opacity: 1; stroke-width: 1; stroke: #000000" x="220" y="220" width="60" height="8" rx="0" ry="0"/>
    <text font-size="5.64444" style="fill: #000000; fill-opacity: 1; stroke: none;text-anchor:end;font-family:monospace;font-style:normal;font-weight:normal" x="96" y="277.95">
      <tspan x="96" y="277.95">0000 0000 0000 0000</tspan>
    </text>
    <text font-size="5.64444" style="fill: #000000; fill-opacity: 1; stroke: none;text-anchor:end;font-family:monospace;font-style:normal;font-weight:normal" x="96" y="21.95">
      <tspan x="96" y="21.95">0000 7FFF FFFF FFFF</tspan>
    </text>
    <text font-size="5.64444" style="fill: #000000; fill-opacity: 1; stroke: none;text-anchor:middle;font-family:monospace;font-style:normal;font-weight:normal" x="128" y="49.95">
      <tspan x="128" y="49.95">.stack</tspan>
    </text>
    <rect style="fill: #d0d0d0; fill-opacity: 1; stroke-opacity: 1; stroke-width: 1; stroke: #000000" x="220" y="212" width="60" height="8" rx="0" ry="0"/>
    <rect style="fill: #b0b0b0; fill-opacity: 1; stroke-opacity: 1; stroke-width: 1; stroke: #000000" x="220" y="204" width="60" height="8" rx="0" ry="0"/>
    <rect style="fill: #d0d0d0; fill-opacity: 1; stroke-opacity: 1; stroke-width: 1; stroke: #000000" x="220" y="244" width="60" height="8" rx="0" ry="0"/>
    <rect style="fill: #d0d0d0; fill-opacity: 1; stroke-opacity: 1; stroke-width: 1; stroke: #000000" x="220" y="236" width="60" height="8" rx="0" ry="0"/>
    <rect style="fill: #b0b0b0; fill-opacity: 1; stroke-opacity: 1; stroke-width: 1; stroke: #000000" x="220" y="228" width="60" height="8" rx="0" ry="0"/>
    <rect style="fill: #d0d0d0; fill-opacity: 1; stroke-opacity: 1; stroke-width: 1; stroke: #000000" x="220" y="268" width="60" height="8" rx="0" ry="0"/>
    <rect style="fill: #b0b0b0; fill-opacity: 1; stroke-opacity: 1; stroke-width: 1; stroke: #000000" x="220" y="260" width="60" height="8" rx="0" ry="0"/>
    <rect style="fill: #b0b0b0; fill-opacity: 1; stroke-opacity: 1; stroke-width: 1; stroke: #000000" x="220" y="252" width="60" height="8" rx="0" ry="0"/>
    <rect style="fill: #b0b0b0; fill-opacity: 1; stroke-opacity: 1; stroke-width: 1; stroke: #000000" x="100" y="228" width="60" height="16" rx="0" ry="0"/>
    <rect style="fill: #b0b0b0; fill-opacity: 1; stroke-opacity: 1; stroke-width: 1; stroke: #000000" x="100" y="212" width="60" height="16" rx="0" ry="0"/>
    <rect style="fill: #b0b0b0; fill-opacity: 1; stroke-opacity: 1; stroke-width: 1; stroke: #000000" x="100" y="196" width="60" height="16" rx="0" ry="0"/>
    <rect style="fill: #ffffff; fill-opacity: 1; stroke-opacity: 1; stroke-width: 1; stroke: #000000" x="100" y="148" width="60" height="48" rx="0" ry="0"/>
    <rect style="fill: #ffffff; fill-opacity: 1; stroke-opacity: 1; stroke-width: 1; stroke: #000000" x="100" y="20" width="60" height="16" rx="0" ry="0"/>
    <text font-size="5.64444" style="fill: #000000; fill-opacity: 1; stroke: none;text-anchor:middle;font-family:monospace;font-style:normal;font-weight:normal" x="130" y="253.95">
      <tspan x="130" y="253.95">.text</tspan>
    </text>
    <text font-size="5.64444" style="fill: #000000; fill-opacity: 1; stroke: none;text-anchor:middle;font-family:monospace;font-style:normal;font-weight:normal" x="130" y="237.95">
      <tspan x="130" y="237.95">.data</tspan>
    </text>
    <text font-size="5.64444" style="fill: #000000; fill-opacity: 1; stroke: none;text-anchor:middle;font-family:monospace;font-style:normal;font-weight:normal" x="130" y="205.95">
      <tspan xml:space="preserve" x="130" y="205.95"> .heap</tspan>
    </text>
    <text font-size="5.64444" style="fill: #000000; fill-opacity: 1; stroke: none;text-anchor:middle;font-family:monospace;font-style:normal;font-weight:normal" x="130" y="221.95">
      <tspan x="130" y="221.95">.bss</tspan>
    </text>
    <rect style="fill: #ffffff; fill-opacity: 1; stroke-opacity: 1; stroke-width: 1; stroke: #000000" x="100" y="260" width="60" height="16" rx="0" ry="0"/>
    <rect style="fill: #707070; fill-opacity: 1; stroke-opacity: 1; stroke-width: 1; stroke: #000000" x="100" y="132" width="60" height="16" rx="0" ry="0"/>
    <rect style="fill: #b0b0b0; fill-opacity: 1; stroke-opacity: 1; stroke-width: 1; stroke: #000000" x="100" y="116" width="60" height="16" rx="0" ry="0"/>
    <rect style="fill: #b0b0b0; fill-opacity: 1; stroke-opacity: 1; stroke-width: 1; stroke: #000000" x="100" y="100" width="60" height="16" rx="0" ry="0"/>
    <text font-size="5.64444" style="fill: #000000; fill-opacity: 1; stroke: none;text-anchor:middle;font-family:monospace;font-style:normal;font-weight:normal" x="130" y="141.95">
      <tspan x="130" y="141.95">.text</tspan>
    </text>
    <text font-size="5.64444" style="fill: #000000; fill-opacity: 1; stroke: none;text-anchor:middle;font-family:monospace;font-style:normal;font-weight:normal" x="130" y="125.95">
      <tspan x="130" y="125.95">.data</tspan>
    </text>
    <text font-size="5.64444" style="fill: #000000; fill-opacity: 1; stroke: none;text-anchor:middle;font-family:monospace;font-style:normal;font-weight:normal" x="130" y="109.95">
      <tspan x="130" y="109.95">.bss</tspan>
    </text>
    <rect style="fill: #ffffff; fill-opacity: 1; stroke-opacity: 1; stroke-width: 1; stroke: #000000" x="100" y="60" width="60" height="40" rx="0" ry="0"/>
    <rect style="fill: #707070; fill-opacity: 1; stroke-opacity: 1; stroke-width: 1; stroke: #000000" x="220" y="148" width="60" height="8" rx="0" ry="0"/>
    <rect style="fill: #707070; fill-opacity: 1; stroke-opacity: 1; stroke-width: 1; stroke: #000000" x="220" y="140" width="60" height="8" rx="0" ry="0"/>
    <rect style="fill: #c0c0c0; fill-opacity: 1; stroke-opacity: 1; stroke-width: 1; stroke: #000000" x="220" y="132" width="60" height="8" rx="0" ry="0"/>
    <rect style="fill: #b0b0b0; fill-opacity: 1; stroke-opacity: 1; stroke-width: 1; stroke: #000000" x="220" y="172" width="60" height="8" rx="0" ry="0"/>
    <rect style="fill: #b0b0b0; fill-opacity: 1; stroke-opacity: 1; stroke-width: 1; stroke: #000000" x="220" y="164" width="60" height="8" rx="0" ry="0"/>
    <rect style="fill: #d0d0d0; fill-opacity: 1; stroke-opacity: 1; stroke-width: 1; stroke: #000000" x="220" y="156" width="60" height="8" rx="0" ry="0"/>
    <rect style="fill: #b0b0b0; fill-opacity: 1; stroke-opacity: 1; stroke-width: 1; stroke: #000000" x="220" y="196" width="60" height="8" rx="0" ry="0"/>
    <rect style="fill: #d0d0d0; fill-opacity: 1; stroke-opacity: 1; stroke-width: 1; stroke: #000000" x="220" y="188" width="60" height="8" rx="0" ry="0"/>
    <rect style="fill: #d0d0d0; fill-opacity: 1; stroke-opacity: 1; stroke-width: 1; stroke: #000000" x="220" y="180" width="60" height="8" rx="0" ry="0"/>
    <rect style="fill: #b0b0b0; fill-opacity: 1; stroke-opacity: 1; stroke-width: 1; stroke: #000000" x="220" y="76" width="60" height="8" rx="0" ry="0"/>
    <rect style="fill: #ffffff; fill-opacity: 1; stroke-opacity: 1; stroke-width: 1; stroke: #000000" x="220" y="68" width="60" height="8" rx="0" ry="0"/>
    <rect style="fill: #c0c0c0; fill-opacity: 1; stroke-opacity: 1; stroke-width: 1; stroke: #000000" x="220" y="60" width="60" height="8" rx="0" ry="0"/>
    <rect style="fill: #b0b0b0; fill-opacity: 1; stroke-opacity: 1; stroke-width: 1; stroke: #000000" x="220" y="100" width="60" height="8" rx="0" ry="0"/>
    <rect style="fill: #b0b0b0; fill-opacity: 1; stroke-opacity: 1; stroke-width: 1; stroke: #000000" x="220" y="92" width="60" height="8" rx="0" ry="0"/>
    <rect style="fill: #b0b0b0; fill-opacity: 1; stroke-opacity: 1; stroke-width: 1; stroke: #000000" x="220" y="84" width="60" height="8" rx="0" ry="0"/>
    <rect style="fill: #c0c0c0; fill-opacity: 1; stroke-opacity: 1; stroke-width: 1; stroke: #000000" x="220" y="124" width="60" height="8" rx="0" ry="0"/>
    <rect style="fill: #c0c0c0; fill-opacity: 1; stroke-opacity: 1; stroke-width: 1; stroke: #000000" x="220" y="116" width="60" height="8" rx="0" ry="0"/>
    <rect style="fill: #c0c0c0; fill-opacity: 1; stroke-opacity: 1; stroke-width: 1; stroke: #000000" x="220" y="108" width="60" height="8" rx="0" ry="0"/>
    <rect style="fill: #ffffff; fill-opacity: 1; stroke-opacity: 1; stroke-width: 1; stroke: #000000" x="220" y="4" width="60" height="8" rx="0" ry="0"/>
    <rect style="fill: #ffffff; fill-opacity: 1; stroke-opacity: 1; stroke-width: 1; stroke: #000000" x="220" y="284" width="60" height="8" rx="0" ry="0"/>
    <rect style="fill: #b0b0b0; fill-opacity: 1; stroke-opacity: 1; stroke-width: 1; stroke: #000000" x="220" y="28" width="60" height="8" rx="0" ry="0"/>
    <rect style="fill: #b0b0b0; fill-opacity: 1; stroke-opacity: 1; stroke-width: 1; stroke: #000000" x="220" y="20" width="60" height="8" rx="0" ry="0"/>
    <rect style="fill: #b0b0b0; fill-opacity: 1; stroke-opacity: 1; stroke-width: 1; stroke: #000000" x="220" y="12" width="60" height="8" rx="0" ry="0"/>
    <rect style="fill: #c0c0c0; fill-opacity: 1; stroke-opacity: 1; stroke-width: 1; stroke: #000000" x="220" y="52" width="60" height="8" rx="0" ry="0"/>
    <rect style="fill: #c0c0c0; fill-opacity: 1; stroke-opacity: 1; stroke-width: 1; stroke: #000000" x="220" y="44" width="60" height="8" rx="0" ry="0"/>
    <rect style="fill: #ffffff; fill-opacity: 1; stroke-opacity: 1; stroke-width: 1; stroke: #000000" x="220" y="36" width="60" height="8" rx="0" ry="0"/>
    <line style="fill: none; stroke-opacity: 1; stroke-width: 0.4; stroke-dasharray: 4; stroke: #000000" x1="220" y1="268" x2="160" y2="260"/>
    <line style="fill: none; stroke-opacity: 1; stroke-width: 0.4; stroke-dasharray: 4; stroke: #000000" x1="220" y1="252" x2="160" y2="244"/>
    <line style="fill: none; stroke-opacity: 1; stroke-width: 0.4; stroke-dasharray: 4; stroke: #000000" x1="220" y1="236" x2="160" y2="244"/>
    <line style="fill: none; stroke-opacity: 1; stroke-width: 0.4; stroke-dasharray: 4; stroke: #000000" x1="220" y1="220" x2="160" y2="228"/>
    <line style="fill: none; stroke-opacity: 1; stroke-width: 0.4; stroke-dasharray: 4; stroke: #000000" x1="220" y1="212" x2="160" y2="228"/>
    <line style="fill: none; stroke-opacity: 1; stroke-width: 0.4; stroke-dasharray: 4; stroke: #000000" x1="220" y1="180" x2="160" y2="212"/>
    <line style="fill: none; stroke-opacity: 1; stroke-width: 0.4; stroke-dasharray: 4; stroke: #000000" x1="220" y1="164" x2="160" y2="196"/>
    <rect style="fill: #d0d0d0; fill-opacity: 1; stroke-opacity: 1; stroke-width: 1; stroke: #000000" x="220" y="276" width="60" height="8" rx="0" ry="0"/>
    <rect style="fill: #c0c0c0; fill-opacity: 1; stroke-opacity: 1; stroke-width: 1; stroke: #000000" x="340" y="36" width="60" height="24" rx="0" ry="0"/>
    <rect style="fill: #d0d0d0; fill-opacity: 1; stroke-opacity: 1; stroke-width: 1; stroke: #000000" x="340" y="244" width="60" height="16" rx="0" ry="0"/>
    <text font-size="5.64444" style="fill: #000000; fill-opacity: 1; stroke: none;text-anchor:start;font-family:sans-serif;font-style:normal;font-weight:normal" x="392" y="208">
      <tspan x="392" y="208"></tspan>
    </text>
    <text font-size="5.64444" style="fill: #000000; fill-opacity: 1; stroke: none;text-anchor:middle;font-family:monospace;font-style:normal;font-weight:normal" x="370" y="49.95">
      <tspan x="370" y="49.95">.stack</tspan>
    </text>
    <rect style="fill: #d0d0d0; fill-opacity: 1; stroke-opacity: 1; stroke-width: 1; stroke: #000000" x="340" y="228" width="60" height="16" rx="0" ry="0"/>
    <rect style="fill: #d0d0d0; fill-opacity: 1; stroke-opacity: 1; stroke-width: 1; stroke: #000000" x="340" y="212" width="60" height="16" rx="0" ry="0"/>
    <rect style="fill: #d0d0d0; fill-opacity: 1; stroke-opacity: 1; stroke-width: 1; stroke: #000000" x="340" y="196" width="60" height="16" rx="0" ry="0"/>
    <rect style="fill: #ffffff; fill-opacity: 1; stroke-opacity: 1; stroke-width: 1; stroke: #000000" x="340" y="148" width="60" height="48" rx="0" ry="0"/>
    <rect style="fill: #ffffff; fill-opacity: 1; stroke-opacity: 1; stroke-width: 1; stroke: #000000" x="340" y="20" width="60" height="16" rx="0" ry="0"/>
    <text font-size="5.64444" style="fill: #000000; fill-opacity: 1; stroke: none;text-anchor:middle;font-family:monospace;font-style:normal;font-weight:normal" x="370" y="253.95">
      <tspan x="370" y="253.95">.text</tspan>
    </text>
    <text font-size="5.64444" style="fill: #000000; fill-opacity: 1; stroke: none;text-anchor:middle;font-family:monospace;font-style:normal;font-weight:normal" x="370" y="237.95">
      <tspan x="370" y="237.95">.data</tspan>
    </text>
    <text font-size="5.64444" style="fill: #000000; fill-opacity: 1; stroke: none;text-anchor:middle;font-family:monospace;font-style:normal;font-weight:normal" x="370" y="205.95">
      <tspan xml:space="preserve" x="370" y="205.95"> .heap</tspan>
    </text>
    <text font-size="5.64444" style="fill: #000000; fill-opacity: 1; stroke: none;text-anchor:middle;font-family:monospace;font-style:normal;font-weight:normal" x="370" y="221.95">
      <tspan x="370" y="221.95">.bss</tspan>
    </text>
    <rect style="fill: #ffffff; fill-opacity: 1; stroke-opacity: 1; stroke-width: 1; stroke: #000000" x="340" y="260" width="60" height="16" rx="0" ry="0"/>
    <rect style="fill: #707070; fill-opacity: 1; stroke-opacity: 1; stroke-width: 1; stroke: #000000" x="340" y="132" width="60" height="16" rx="0" ry="0"/>
    <rect style="fill: #c0c0c0; fill-opacity: 1; stroke-opacity: 1; stroke-width: 1; stroke: #000000" x="340" y="116" width="60" height="16" rx="0" ry="0"/>
    <rect style="fill: #c0c0c0; fill-opacity: 1; stroke-opacity: 1; stroke-width: 1; stroke: #000000" x="340" y="100" width="60" height="16" rx="0" ry="0"/>
    <text font-size="5.64444" style="fill: #000000; fill-opacity: 1; stroke: none;text-anchor:middle;font-family:monospace;font-style:normal;font-weight:normal" x="370" y="141.95">
      <tspan x="370" y="141.95">.text</tspan>
    </text>
    <text font-size="5.64444" style="fill: #000000; fill-opacity: 1; stroke: none;text-anchor:middle;font-family:monospace;font-style:normal;font-weight:normal" x="370" y="125.95">
      <tspan x="370" y="125.95">.data</tspan>
    </text>
    <text font-size="5.64444" style="fill: #000000; fill-opacity: 1; stroke: none;text-anchor:middle;font-family:monospace;font-style:normal;font-weight:normal" x="370" y="109.95">
      <tspan x="370" y="109.95">.bss</tspan>
    </text>
    <rect style="fill: #ffffff; fill-opacity: 1; stroke-opacity: 1; stroke-width: 1; stroke: #000000" x="340" y="60" width="60" height="40" rx="0" ry="0"/>
    <line style="fill: none; stroke-opacity: 1; stroke-width: 0.4; stroke-dasharray: 4; stroke: #000000" x1="340" y1="244" x2="280" y2="268"/>
    <line style="fill: none; stroke-opacity: 1; stroke-width: 0.4; stroke-dasharray: 4; stroke: #000000" x1="340" y1="260" x2="280" y2="284"/>
    <line style="fill: none; stroke-opacity: 1; stroke-width: 0.4; stroke-dasharray: 4; stroke: #000000" x1="340" y1="228" x2="280" y2="236"/>
    <line style="fill: none; stroke-opacity: 1; stroke-width: 0.4; stroke-dasharray: 4; stroke: #000000" x1="340" y1="228" x2="280" y2="220"/>
    <line style="fill: none; stroke-opacity: 1; stroke-width: 0.4; stroke-dasharray: 4; stroke: #000000" x1="340" y1="244" x2="280" y2="252"/>
    <line style="fill: none; stroke-opacity: 1; stroke-width: 0.4; stroke-dasharray: 4; stroke: #000000" x1="220" y1="196" x2="160" y2="212"/>
    <line style="fill: none; stroke-opacity: 1; stroke-width: 0.4; stroke-dasharray: 4; stroke: #000000" x1="340" y1="220" x2="280" y2="212"/>
    <line style="fill: none; stroke-opacity: 1; stroke-width: 0.4; stroke-dasharray: 4; stroke: #000000" x1="340" y1="212" x2="280" y2="188"/>
    <line style="fill: none; stroke-opacity: 1; stroke-width: 0.4; stroke-dasharray: 4; stroke: #000000" x1="340" y1="220" x2="280" y2="196"/>
    <line style="fill: none; stroke-opacity: 1; stroke-width: 0.4; stroke-dasharray: 4; stroke: #000000" x1="340" y1="204" x2="280" y2="180"/>
    <line style="fill: none; stroke-opacity: 1; stroke-width: 0.4; stroke-dasharray: 4; stroke: #000000" x1="340" y1="196" x2="280" y2="156"/>
    <line style="fill: none; stroke-opacity: 1; stroke-width: 0.4; stroke-dasharray: 4; stroke: #000000" x1="220" y1="156" x2="160" y2="148"/>
    <line style="fill: none; stroke-opacity: 1; stroke-width: 0.4; stroke-dasharray: 4; stroke: #000000" x1="220" y1="140" x2="160" y2="132"/>
    <line style="fill: none; stroke-opacity: 1; stroke-width: 0.4; stroke-dasharray: 4; stroke: #000000" x1="340" y1="148" x2="280" y2="156"/>
    <line style="fill: none; stroke-opacity: 1; stroke-width: 0.4; stroke-dasharray: 4; stroke: #000000" x1="340" y1="132" x2="280" y2="140"/>
    <line style="fill: none; stroke-opacity: 1; stroke-width: 0.4; stroke-dasharray: 4; stroke: #000000" x1="340" y1="116" x2="280" y2="124"/>
    <line style="fill: none; stroke-opacity: 1; stroke-width: 0.4; stroke-dasharray: 4; stroke: #000000" x1="340" y1="100" x2="280" y2="108"/>
    <line style="fill: none; stroke-opacity: 1; stroke-width: 0.4; stroke-dasharray: 4; stroke: #000000" x1="220" y1="108" x2="160" y2="132"/>
    <line style="fill: none; stroke-opacity: 1; stroke-width: 0.4; stroke-dasharray: 4; stroke: #000000" x1="220" y1="92" x2="160" y2="116"/>
    <line style="fill: none; stroke-opacity: 1; stroke-width: 0.4; stroke-dasharray: 4; stroke: #000000" x1="220" y1="76" x2="160" y2="100"/>
    <line style="fill: none; stroke-opacity: 1; stroke-width: 0.4; stroke-dasharray: 4; stroke: #000000" x1="220" y1="12" x2="160" y2="36"/>
    <line style="fill: none; stroke-opacity: 1; stroke-width: 0.4; stroke-dasharray: 4; stroke: #000000" x1="220" y1="36" x2="160" y2="60"/>
    <line style="fill: none; stroke-opacity: 1; stroke-width: 0.4; stroke-dasharray: 4; stroke: #000000" x1="340" y1="36" x2="280" y2="44"/>
    <line style="fill: none; stroke-opacity: 1; stroke-width: 0.4; stroke-dasharray: 4; stroke: #000000" x1="340" y1="60" x2="280" y2="68"/>
    <text font-size="5.64444" style="fill: #000000; fill-opacity: 1; stroke: none;text-anchor:middle;font-family:monospace;font-style:normal;font-weight:normal" x="128" y="289.95">
      <tspan x="128" y="289.95">Espaço de memória virtual</tspan>
    </text>
    <text font-size="5.64444" style="fill: #000000; fill-opacity: 1; stroke: none;text-anchor:middle;font-family:monospace;font-style:normal;font-weight:normal" x="252" y="301.95">
      <tspan x="252" y="301.95">Memória física</tspan>
    </text>
    <text font-size="5.64444" style="fill: #000000; fill-opacity: 1; stroke: none;text-anchor:middle;font-family:monospace;font-style:normal;font-weight:normal" x="372" y="289.95">
      <tspan x="372" y="289.95">Espaço de memória virtual</tspan>
    </text>
  </g>
</svg>
