<?xml version="1.0" encoding="UTF-8" standalone="no"?>
<!DOCTYPE svg PUBLIC "-//W3C//DTD SVG 1.1//EN" "http://www.w3.org/Graphics/SVG/1.1/DTD/svg11.dtd">
<svg width="9cm" height="6cm" viewBox="-1 -2 162 111" xmlns="http://www.w3.org/2000/svg" xmlns:xlink="http://www.w3.org/1999/xlink">
  <g id="Background"/>
  <g id="Background">
    <text font-size="12.8" style="fill: #000000; fill-opacity: 1; stroke: none;text-anchor:start;font-family:sans-serif;font-style:normal;font-weight:normal" x="44" y="12">
      <tspan x="44" y="12"></tspan>
    </text>
    <line style="fill: none; stroke-opacity: 1; stroke-width: 1; stroke: #000000" x1="80" y1="12" x2="80" y2="2.66454e-14"/>
    <line style="fill: none; stroke-opacity: 1; stroke-width: 1; stroke: #000000" x1="6.66134e-15" y1="12" x2="6.66134e-15" y2="2.66454e-14"/>
    <line style="fill: none; stroke-opacity: 1; stroke-width: 1; stroke: #000000" x1="6.66134e-15" y1="108" x2="6.66134e-15" y2="96"/>
    <line style="fill: none; stroke-opacity: 1; stroke-width: 1; stroke: #000000" x1="80" y1="108" x2="80" y2="96"/>
    <g>
      <rect style="fill: #ffffff; fill-opacity: 1; stroke-opacity: 1; stroke-width: 1; stroke: #000000" x="100" y="24" width="60" height="12" rx="0" ry="0"/>
      <text font-size="5.64444" style="fill: #000000; fill-opacity: 1; stroke: none;text-anchor:middle;font-family:Courier New;font-style:normal;font-weight:700" x="130" y="31.1722">
        <tspan x="130" y="31.1722">0x7fffffffdd58</tspan>
      </text>
    </g>
    <g>
      <line style="fill: none; stroke-opacity: 1; stroke-width: 1; stroke: #000000" x1="100" y1="30" x2="86.5" y2="30"/>
      <polygon style="fill: #000000; fill-opacity: 1; stroke-opacity: 1; stroke-width: 1; stroke: #000000" fill-rule="evenodd" points="86.5,29 80.5,30 86.5,31 "/>
    </g>
    <g>
      <rect style="fill: #707070; fill-opacity: 1; stroke-opacity: 1; stroke-width: 1; stroke: #000000" x="3.55271e-14" y="24" width="80" height="12" rx="0" ry="0"/>
      <text font-size="5.64444" style="fill: #000000; fill-opacity: 1; stroke: none;text-anchor:middle;font-family:Courier New;font-style:normal;font-weight:700" x="40" y="31.1722">
        <tspan x="40" y="31.1722">rip</tspan>
      </text>
    </g>
    <text font-size="5.64444" style="fill: #000000; fill-opacity: 1; stroke: none;text-anchor:middle;font-family:Courier New;font-style:normal;font-weight:700" x="130" y="42.7">
      <tspan x="130" y="42.7">RSP</tspan>
    </text>
    <g>
      <rect style="fill: #a0a0a0; fill-opacity: 1; stroke-opacity: 1; stroke-width: 1; stroke: #000000" x="3.10862e-14" y="60" width="40" height="12" rx="0" ry="0"/>
      <text font-size="5.64444" style="fill: #000000; fill-opacity: 1; stroke: none;text-anchor:middle;font-family:Courier New;font-style:normal;font-weight:700" x="20" y="67.1722">
        <tspan x="20" y="67.1722">day</tspan>
      </text>
    </g>
    <g>
      <rect style="fill: #c0c0c0; fill-opacity: 1; stroke-opacity: 1; stroke-width: 1; stroke: #000000" x="40" y="60" width="40" height="12" rx="0" ry="0"/>
      <text font-size="5.64444" style="fill: #000000; fill-opacity: 1; stroke: none;text-anchor:middle;font-family:Courier New;font-style:normal;font-weight:700" x="60" y="67.1722">
        <tspan x="60" y="67.1722"></tspan>
      </text>
    </g>
    <g>
      <rect style="fill: #707070; fill-opacity: 1; stroke-opacity: 1; stroke-width: 1; stroke: #000000" x="3.55271e-14" y="12" width="80" height="12" rx="0" ry="0"/>
      <text font-size="5.64444" style="fill: #000000; fill-opacity: 1; stroke: none;text-anchor:middle;font-family:Courier New;font-style:normal;font-weight:700" x="40" y="19.1722">
        <tspan x="40" y="19.1722"></tspan>
      </text>
    </g>
    <g>
      <rect style="fill: #ffffff; fill-opacity: 1; stroke-opacity: 1; stroke-width: 1; stroke: #000000" x="3.55271e-14" y="72" width="80" height="12" rx="0" ry="0"/>
      <text font-size="5.64444" style="fill: #000000; fill-opacity: 1; stroke: none;text-anchor:middle;font-family:Courier New;font-style:normal;font-weight:700" x="40" y="79.1722">
        <tspan x="40" y="79.1722"></tspan>
      </text>
    </g>
    <g>
      <rect style="fill: #ffffff; fill-opacity: 1; stroke-opacity: 1; stroke-width: 1; stroke: #000000" x="3.55271e-14" y="84" width="80" height="12" rx="0" ry="0"/>
      <text font-size="5.64444" style="fill: #000000; fill-opacity: 1; stroke: none;text-anchor:middle;font-family:Courier New;font-style:normal;font-weight:700" x="40" y="91.1722">
        <tspan x="40" y="91.1722"></tspan>
      </text>
    </g>
    <g>
      <rect style="fill: #ffffff; fill-opacity: 1; stroke-opacity: 1; stroke-width: 1; stroke: #000000" x="100" y="60" width="60" height="12" rx="0" ry="0"/>
      <text font-size="5.64444" style="fill: #000000; fill-opacity: 1; stroke: none;text-anchor:middle;font-family:Courier New;font-style:normal;font-weight:700" x="130" y="67.1722">
        <tspan x="130" y="67.1722">0x7fffffffdd40</tspan>
      </text>
    </g>
    <g>
      <line style="fill: none; stroke-opacity: 1; stroke-width: 1; stroke: #000000" x1="100" y1="66" x2="86.5" y2="66"/>
      <polygon style="fill: #000000; fill-opacity: 1; stroke-opacity: 1; stroke-width: 1; stroke: #000000" fill-rule="evenodd" points="86.5,65 80.5,66 86.5,67 "/>
    </g>
    <text font-size="5.64444" style="fill: #000000; fill-opacity: 1; stroke: none;text-anchor:middle;font-family:Courier New;font-style:normal;font-weight:700" x="130" y="78.7">
      <tspan x="130" y="78.7">RSP</tspan>
    </text>
    <g>
      <rect style="fill: #a0a0a0; fill-opacity: 1; stroke-opacity: 1; stroke-width: 1; stroke: #000000" x="3.10862e-14" y="48" width="40" height="12" rx="0" ry="0"/>
      <text font-size="5.64444" style="fill: #000000; fill-opacity: 1; stroke: none;text-anchor:middle;font-family:Courier New;font-style:normal;font-weight:700" x="20" y="55.1722">
        <tspan x="20" y="55.1722">year</tspan>
      </text>
    </g>
    <g>
      <rect style="fill: #a0a0a0; fill-opacity: 1; stroke-opacity: 1; stroke-width: 1; stroke: #000000" x="40" y="48" width="40" height="12" rx="0" ry="0"/>
      <text font-size="5.64444" style="fill: #000000; fill-opacity: 1; stroke: none;text-anchor:middle;font-family:Courier New;font-style:normal;font-weight:700" x="60" y="55.1722">
        <tspan x="60" y="55.1722">month</tspan>
      </text>
    </g>
    <g>
      <rect style="fill: #c0c0c0; fill-opacity: 1; stroke-opacity: 1; stroke-width: 1; stroke: #000000" x="3.55271e-14" y="36" width="80" height="12" rx="0" ry="0"/>
      <text font-size="5.64444" style="fill: #000000; fill-opacity: 1; stroke: none;text-anchor:middle;font-family:Courier New;font-style:normal;font-weight:700" x="40" y="43.1722">
        <tspan x="40" y="43.1722"></tspan>
      </text>
    </g>
  </g>
</svg>
