<?xml version="1.0" encoding="UTF-8" standalone="no"?>
<!DOCTYPE svg PUBLIC "-//W3C//DTD SVG 1.1//EN" "http://www.w3.org/Graphics/SVG/1.1/DTD/svg11.dtd">
<svg width="6cm" height="16cm" viewBox="189 -60 120 309" xmlns="http://www.w3.org/2000/svg" xmlns:xlink="http://www.w3.org/1999/xlink">
  <defs/>
  <g id="Background"/>
  <g id="Background">
    <g>
      <rect style="fill: #ffffff; fill-opacity: 1; stroke-opacity: 1; stroke-width: 1; stroke: #000000" x="190" y="190" width="40" height="48" rx="0" ry="0"/>
      <text font-size="5.64444" style="fill: #000000; fill-opacity: 1; stroke: none;text-anchor:middle;font-family:Courier New;font-style:normal;font-weight:700" x="210" y="215.172">
        <tspan x="210" y="215.172"></tspan>
      </text>
    </g>
    <rect style="fill: #c0c0c0; fill-opacity: 1; stroke-opacity: 1; stroke-width: 1; stroke: #000000" x="190" y="232" width="40" height="6" rx="0" ry="0"/>
    <g>
      <rect style="fill: #ffffff; fill-opacity: 1; stroke-opacity: 1; stroke-width: 1; stroke: #000000" x="252" y="40" width="56" height="8.05556" rx="0" ry="0"/>
      <text font-size="5.64444" style="fill: #000000; fill-opacity: 1; stroke: none;text-anchor:middle;font-family:Courier New;font-style:normal;font-weight:700" x="280" y="45.2">
        <tspan x="280" y="45.2">0x7fffffffdd50</tspan>
      </text>
    </g>
    <g>
      <line style="fill: none; stroke-opacity: 1; stroke-width: 1; stroke: #000000" x1="252" y1="44.0278" x2="238.5" y2="44.009"/>
      <polygon style="fill: #000000; fill-opacity: 1; stroke-opacity: 1; stroke-width: 1; stroke: #000000" fill-rule="evenodd" points="238.501,43.009 232.5,44.0007 238.499,45.009 "/>
    </g>
    <text font-size="5.64444" style="fill: #000000; fill-opacity: 1; stroke: none;text-anchor:middle;font-family:Courier New;font-style:normal;font-weight:700" x="280" y="54.7556">
      <tspan x="280" y="54.7556">RBP</tspan>
    </text>
    <g>
      <rect style="fill: #ffffff; fill-opacity: 1; stroke-opacity: 1; stroke-width: 1; stroke: #000000" x="252" y="232" width="56" height="8.05556" rx="0" ry="0"/>
      <text font-size="5.64444" style="fill: #000000; fill-opacity: 1; stroke: none;text-anchor:middle;font-family:Courier New;font-style:normal;font-weight:700" x="280" y="237.2">
        <tspan x="280" y="237.2">0x7fffffffdd30</tspan>
      </text>
    </g>
    <g>
      <line style="fill: none; stroke-opacity: 1; stroke-width: 1; stroke: #000000" x1="252" y1="236.028" x2="238.5" y2="236.009"/>
      <polygon style="fill: #000000; fill-opacity: 1; stroke-opacity: 1; stroke-width: 1; stroke: #000000" fill-rule="evenodd" points="238.501,235.009 232.5,236.001 238.499,237.009 "/>
    </g>
    <text font-size="5.64444" style="fill: #000000; fill-opacity: 1; stroke: none;text-anchor:middle;font-family:Courier New;font-style:normal;font-weight:700" x="280" y="246.756">
      <tspan x="280" y="246.756">RSP</tspan>
    </text>
    <g>
      <rect style="fill: #707070; fill-opacity: 1; stroke-opacity: 1; stroke-width: 1; stroke: #000000" x="190" y="-50" width="40" height="48" rx="0" ry="0"/>
      <text font-size="5.64444" style="fill: #000000; fill-opacity: 1; stroke: none;text-anchor:middle;font-family:Courier New;font-style:normal;font-weight:700" x="210" y="-24.8278">
        <tspan x="210" y="-24.8278">rip</tspan>
      </text>
    </g>
    <line style="fill: none; stroke-opacity: 1; stroke-width: 0.2; stroke: #000000" x1="190" y1="-44" x2="230" y2="-44"/>
    <line style="fill: none; stroke-opacity: 1; stroke-width: 0.2; stroke: #000000" x1="190" y1="-32" x2="230" y2="-32"/>
    <line style="fill: none; stroke-opacity: 1; stroke-width: 0.2; stroke: #000000" x1="190" y1="-38" x2="230" y2="-38"/>
    <line style="fill: none; stroke-opacity: 1; stroke-width: 0.2; stroke: #000000" x1="190" y1="-20" x2="230" y2="-20"/>
    <line style="fill: none; stroke-opacity: 1; stroke-width: 0.2; stroke: #000000" x1="190" y1="-26" x2="230" y2="-26"/>
    <line style="fill: none; stroke-opacity: 1; stroke-width: 0.2; stroke: #000000" x1="190" y1="-8" x2="230" y2="-8"/>
    <line style="fill: none; stroke-opacity: 1; stroke-width: 0.2; stroke: #000000" x1="190" y1="-14" x2="230" y2="-14"/>
    <g>
      <rect style="fill: #a0a0a0; fill-opacity: 1; stroke-opacity: 1; stroke-width: 1; stroke: #000000" x="190" y="-2" width="40" height="48" rx="0" ry="0"/>
      <text font-size="5.64444" style="fill: #000000; fill-opacity: 1; stroke: none;text-anchor:middle;font-family:Courier New;font-style:normal;font-weight:700" x="210" y="23.1722">
        <tspan x="210" y="23.1722">rbp</tspan>
      </text>
    </g>
    <line style="fill: none; stroke-opacity: 1; stroke-width: 0.2; stroke: #000000" x1="190" y1="4" x2="230" y2="4"/>
    <line style="fill: none; stroke-opacity: 1; stroke-width: 0.2; stroke: #000000" x1="190" y1="16" x2="230" y2="16"/>
    <line style="fill: none; stroke-opacity: 1; stroke-width: 0.2; stroke: #000000" x1="190" y1="10" x2="230" y2="10"/>
    <line style="fill: none; stroke-opacity: 1; stroke-width: 0.2; stroke: #000000" x1="190" y1="28" x2="230" y2="28"/>
    <line style="fill: none; stroke-opacity: 1; stroke-width: 0.2; stroke: #000000" x1="190" y1="22" x2="230" y2="22"/>
    <line style="fill: none; stroke-opacity: 1; stroke-width: 0.2; stroke: #000000" x1="190" y1="40" x2="230" y2="40"/>
    <line style="fill: none; stroke-opacity: 1; stroke-width: 0.2; stroke: #000000" x1="190" y1="34" x2="230" y2="34"/>
    <g>
      <rect style="fill: #a0a0a0; fill-opacity: 1; stroke-opacity: 1; stroke-width: 1; stroke: #000000" x="190" y="46" width="40" height="48" rx="0" ry="0"/>
      <text font-size="5.64444" style="fill: #000000; fill-opacity: 1; stroke: none;text-anchor:middle;font-family:Courier New;font-style:normal;font-weight:700" x="210" y="71.1722">
        <tspan x="210" y="71.1722">x1</tspan>
      </text>
    </g>
    <line style="fill: none; stroke-opacity: 1; stroke-width: 0.2; stroke: #000000" x1="190" y1="52" x2="230" y2="52"/>
    <line style="fill: none; stroke-opacity: 1; stroke-width: 0.2; stroke: #000000" x1="190" y1="64" x2="230" y2="64"/>
    <line style="fill: none; stroke-opacity: 1; stroke-width: 0.2; stroke: #000000" x1="190" y1="58" x2="230" y2="58"/>
    <line style="fill: none; stroke-opacity: 1; stroke-width: 0.2; stroke: #000000" x1="190" y1="76" x2="230" y2="76"/>
    <line style="fill: none; stroke-opacity: 1; stroke-width: 0.2; stroke: #000000" x1="190" y1="70" x2="230" y2="70"/>
    <line style="fill: none; stroke-opacity: 1; stroke-width: 0.2; stroke: #000000" x1="190" y1="88" x2="230" y2="88"/>
    <line style="fill: none; stroke-opacity: 1; stroke-width: 0.2; stroke: #000000" x1="190" y1="82" x2="230" y2="82"/>
    <g>
      <rect style="fill: #a0a0a0; fill-opacity: 1; stroke-opacity: 1; stroke-width: 1; stroke: #000000" x="190" y="94" width="40" height="48" rx="0" ry="0"/>
      <text font-size="5.64444" style="fill: #000000; fill-opacity: 1; stroke: none;text-anchor:middle;font-family:Courier New;font-style:normal;font-weight:700" x="210" y="119.172">
        <tspan x="210" y="119.172"></tspan>
      </text>
    </g>
    <line style="fill: none; stroke-opacity: 1; stroke-width: 0.2; stroke: #000000" x1="190" y1="100" x2="230" y2="100"/>
    <line style="fill: none; stroke-opacity: 1; stroke-width: 0.2; stroke: #000000" x1="190" y1="112" x2="230" y2="112"/>
    <line style="fill: none; stroke-opacity: 1; stroke-width: 0.2; stroke: #000000" x1="190" y1="106" x2="230" y2="106"/>
    <line style="fill: none; stroke-opacity: 1; stroke-width: 0.2; stroke: #000000" x1="190" y1="124" x2="230" y2="124"/>
    <line style="fill: none; stroke-opacity: 1; stroke-width: 1; stroke: #000000" x1="190" y1="118" x2="230" y2="118"/>
    <line style="fill: none; stroke-opacity: 1; stroke-width: 1; stroke: #000000" x1="190" y1="136" x2="230" y2="136"/>
    <line style="fill: none; stroke-opacity: 1; stroke-width: 1; stroke: #000000" x1="190" y1="130" x2="230" y2="130"/>
    <text font-size="5.64444" style="fill: #000000; fill-opacity: 1; stroke: none;text-anchor:middle;font-family:Courier New;font-style:normal;font-weight:700" x="210" y="106.7">
      <tspan x="210" y="106.7">x2</tspan>
    </text>
    <text font-size="5.64444" style="fill: #000000; fill-opacity: 1; stroke: none;text-anchor:middle;font-family:Courier New;font-style:normal;font-weight:700" x="210" y="124.7">
      <tspan x="210" y="124.7">x3</tspan>
    </text>
    <text font-size="5.64444" style="fill: #000000; fill-opacity: 1; stroke: none;text-anchor:middle;font-family:Courier New;font-style:normal;font-weight:700" x="210" y="134.7">
      <tspan x="210" y="134.7">x4</tspan>
    </text>
    <rect style="fill: #ffffff; fill-opacity: 1; stroke-opacity: 1; stroke-width: 1; stroke: #000000" x="190" y="136" width="40" height="6" rx="0" ry="0"/>
    <g>
      <rect style="fill: #c0c0c0; fill-opacity: 1; stroke-opacity: 1; stroke-width: 1; stroke: #000000" x="190" y="142" width="40" height="48" rx="0" ry="0"/>
      <text font-size="5.64444" style="fill: #000000; fill-opacity: 1; stroke: none;text-anchor:middle;font-family:Courier New;font-style:normal;font-weight:700" x="210" y="167.172">
        <tspan x="210" y="167.172">&amp;x4</tspan>
      </text>
    </g>
    <line style="fill: none; stroke-opacity: 1; stroke-width: 0.2; stroke: #000000" x1="190" y1="148" x2="230" y2="148"/>
    <line style="fill: none; stroke-opacity: 1; stroke-width: 0.2; stroke: #000000" x1="190" y1="160" x2="230" y2="160"/>
    <line style="fill: none; stroke-opacity: 1; stroke-width: 0.2; stroke: #000000" x1="190" y1="154" x2="230" y2="154"/>
    <line style="fill: none; stroke-opacity: 1; stroke-width: 0.2; stroke: #000000" x1="190" y1="172" x2="230" y2="172"/>
    <line style="fill: none; stroke-opacity: 1; stroke-width: 0.2; stroke: #000000" x1="190" y1="166" x2="230" y2="166"/>
    <line style="fill: none; stroke-opacity: 1; stroke-width: 0.2; stroke: #000000" x1="190" y1="184" x2="230" y2="184"/>
    <line style="fill: none; stroke-opacity: 1; stroke-width: 0.2; stroke: #000000" x1="190" y1="178" x2="230" y2="178"/>
    <line style="fill: none; stroke-opacity: 1; stroke-width: 0.2; stroke: #000000" x1="190" y1="196" x2="230" y2="196"/>
    <line style="fill: none; stroke-opacity: 1; stroke-width: 0.2; stroke: #000000" x1="190" y1="208" x2="230" y2="208"/>
    <line style="fill: none; stroke-opacity: 1; stroke-width: 0.2; stroke: #000000" x1="190" y1="202" x2="230" y2="202"/>
    <line style="fill: none; stroke-opacity: 1; stroke-width: 0.2; stroke: #000000" x1="190" y1="220" x2="230" y2="220"/>
    <line style="fill: none; stroke-opacity: 1; stroke-width: 0.2; stroke: #000000" x1="190" y1="214" x2="230" y2="214"/>
    <line style="fill: none; stroke-opacity: 1; stroke-width: 0.2; stroke: #000000" x1="190" y1="232" x2="230" y2="232"/>
    <line style="fill: none; stroke-opacity: 1; stroke-width: 0.2; stroke: #000000" x1="190" y1="226" x2="230" y2="226"/>
    <text font-size="5.64444" style="fill: #000000; fill-opacity: 1; stroke: none;text-anchor:middle;font-family:Courier New;font-style:normal;font-weight:700" x="210" y="236.7">
      <tspan x="210" y="236.7">x4</tspan>
    </text>
    <line style="fill: none; stroke-opacity: 1; stroke-width: 1; stroke: #000000" x1="190" y1="244" x2="190" y2="-56"/>
    <line style="fill: none; stroke-opacity: 1; stroke-width: 1; stroke: #000000" x1="230" y1="244" x2="230" y2="-56"/>
    <g>
      <rect style="fill: #ffffff; fill-opacity: 1; stroke-opacity: 1; stroke-width: 1; stroke: #000000" x="252" y="136" width="56" height="8.05556" rx="0" ry="0"/>
      <text font-size="5.64444" style="fill: #000000; fill-opacity: 1; stroke: none;text-anchor:middle;font-family:Courier New;font-style:normal;font-weight:700" x="280" y="141.2">
        <tspan x="280" y="141.2">0x7fffffffdd40</tspan>
      </text>
    </g>
    <text font-size="5.64444" style="fill: #000000; fill-opacity: 1; stroke: none;text-anchor:middle;font-family:Courier New;font-style:normal;font-weight:700" x="280" y="150.756">
      <tspan x="280" y="150.756">RSP</tspan>
    </text>
    <g>
      <line style="fill: none; stroke-opacity: 1; stroke-width: 1; stroke: #000000" x1="252" y1="140.028" x2="238.5" y2="139.99"/>
      <polygon style="fill: #000000; fill-opacity: 1; stroke-opacity: 1; stroke-width: 1; stroke: #000000" fill-rule="evenodd" points="238.503,138.99 232.5,139.974 238.497,140.99 "/>
    </g>
    <text font-size="5.64444" style="fill: #000000; fill-opacity: 1; stroke: none;text-anchor:middle;font-family:Courier New;font-style:normal;font-weight:700" x="226" y="-55.3">
      <tspan x="226" y="-55.3">0</tspan>
    </text>
    <text font-size="5.64444" style="fill: #000000; fill-opacity: 1; stroke: none;text-anchor:middle;font-family:Courier New;font-style:normal;font-weight:700" x="194" y="-55.3">
      <tspan x="194" y="-55.3">7</tspan>
    </text>
  </g>
</svg>
